<?xml version="1.0" encoding="UTF-8"?>
<svg xmlns="http://www.w3.org/2000/svg" viewBox="0 0 500 600" width="500" height="600">
  <defs>
    <linearGradient id="goldGrad" x1="0%" y1="0%" x2="0%" y2="100%">
      <stop offset="0%" style="stop-color:#E8C068"/>
      <stop offset="50%" style="stop-color:#D4A84B"/>
      <stop offset="100%" style="stop-color:#B8923D"/>
    </linearGradient>
    <linearGradient id="flameGrad" x1="0%" y1="100%" x2="0%" y2="0%">
      <stop offset="0%" style="stop-color:#C41E3A"/>
      <stop offset="100%" style="stop-color:#E44D26"/>
    </linearGradient>
  </defs>

  <!-- T-shirt silhouette - black garment -->
  <path d="M100 80
           L50 120 L30 200 L80 220 L80 550
           L420 550 L420 220 L470 200 L450 120 L400 80
           L380 80 Q350 120 250 120 Q150 120 120 80 Z"
        fill="#1A1A1A" stroke="#333" stroke-width="2"/>

  <!-- Collar -->
  <path d="M120 80 Q170 130 250 130 Q330 130 380 80 Q350 100 250 100 Q150 100 120 80 Z" fill="#0D0D0D"/>

  <!-- Left sleeve fold -->
  <line x1="80" y1="220" x2="110" y2="180" stroke="#333" stroke-width="1"/>

  <!-- Right sleeve fold -->
  <line x1="420" y1="220" x2="390" y2="180" stroke="#333" stroke-width="1"/>

  <!-- Print area guide -->
  <rect x="150" y="180" width="200" height="250" fill="none" stroke="#D4A84B" stroke-width="1" stroke-dasharray="5,5" opacity="0.5"/>

  <!-- Logo placement - LEFT CHEST -->
  <g transform="translate(170, 200) scale(0.5)">
    <!-- Embers -->
    <circle cx="-5" cy="-60" r="2" fill="#D4A84B" opacity="0.9"/>
    <circle cx="8" cy="-68" r="1.5" fill="#D4A84B" opacity="0.8"/>
    <circle cx="2" cy="-52" r="1.8" fill="#D4A84B" opacity="0.85"/>

    <!-- Flame -->
    <path d="M0 -45 Q-4 -32 -10 -15 Q-14 -2 -10 8 Q-5 16 0 18 Q5 16 10 8 Q14 -2 10 -15 Q4 -32 0 -45 Z" fill="url(#flameGrad)"/>

    <!-- Swirl -->
    <path d="M-28 15 Q-38 20 -34 28 Q-30 36 -15 38 Q0 40 15 38 Q30 36 34 28 Q38 20 28 15 Q15 10 0 8 Q-15 10 -28 15 Z M-22 20 Q-15 16 0 14 Q15 16 22 20 Q26 26 23 32 Q17 36 0 37 Q-17 36 -23 32 Q-26 26 -22 20 Z" fill="url(#goldGrad)" fill-rule="evenodd"/>
    <path d="M-28 15 Q-40 10 -45 18 Q-50 28 -42 34 Q-35 38 -28 34 Q-34 28 -32 24 Q-30 18 -28 15 Z" fill="url(#goldGrad)"/>
  </g>

  <!-- LARGE BACK PRINT (shown smaller for reference) -->
  <g transform="translate(250, 350) scale(0.8)">
    <!-- Embers -->
    <circle cx="-8" cy="-80" r="2.5" fill="#D4A84B" opacity="0.9"/>
    <circle cx="10" cy="-90" r="2" fill="#D4A84B" opacity="0.8"/>
    <circle cx="3" cy="-70" r="2.2" fill="#D4A84B" opacity="0.85"/>
    <circle cx="-15" cy="-65" r="1.5" fill="#D4A84B" opacity="0.7"/>
    <circle cx="18" cy="-75" r="1.2" fill="#D4A84B" opacity="0.6"/>

    <!-- Flame -->
    <path d="M0 -60 Q-5 -42 -15 -18 Q-20 0 -15 12 Q-8 22 0 25 Q8 22 15 12 Q20 0 15 -18 Q5 -42 0 -60 Z" fill="url(#flameGrad)"/>
    <path d="M-15 -38 Q-25 -25 -28 -10 Q-30 2 -22 10 Q-15 16 -8 12 Q-12 4 -12 -6 Q-12 -25 -15 -38 Z" fill="#C41E3A"/>
    <path d="M15 -38 Q25 -25 28 -10 Q30 2 22 10 Q15 16 8 12 Q12 4 12 -6 Q12 -25 15 -38 Z" fill="#C41E3A"/>

    <!-- Swirl -->
    <path d="M-42 22 Q-55 28 -50 42 Q-42 55 -18 58 Q0 60 18 58 Q42 55 50 42 Q55 28 42 22 Q25 15 0 12 Q-25 15 -42 22 Z M-35 28 Q-24 22 0 20 Q24 22 35 28 Q42 36 38 48 Q28 56 0 58 Q-28 56 -38 48 Q-42 36 -35 28 Z" fill="url(#goldGrad)" fill-rule="evenodd"/>
    <path d="M-42 22 Q-60 15 -70 28 Q-78 45 -62 56 Q-52 64 -40 56 Q-48 46 -46 38 Q-44 28 -42 22 Z" fill="url(#goldGrad)"/>
  </g>

  <!-- Brand text -->
  <text x="250" y="450" font-family="Georgia, serif" font-size="32" font-weight="bold" text-anchor="middle">
    <tspan fill="#D4A84B">BRASA</tspan><tspan fill="#C41E3A">ROJA</tspan>
  </text>
  <text x="250" y="480" font-family="'Brush Script MT', cursive" font-size="18" fill="#D4A84B" text-anchor="middle" font-style="italic">Tradición Familiar</text>

  <!-- Labels -->
  <text x="250" y="30" font-family="Arial, sans-serif" font-size="14" fill="#666" text-anchor="middle">BRASA ROJA - T-SHIRT PRINT TEMPLATE</text>
  <text x="170" y="165" font-family="Arial, sans-serif" font-size="8" fill="#D4A84B" text-anchor="middle">Left Chest</text>
  <text x="250" y="530" font-family="Arial, sans-serif" font-size="8" fill="#D4A84B" text-anchor="middle">Back Print Area</text>
</svg>
