<?xml version="1.0" encoding="UTF-8"?>
<svg xmlns="http://www.w3.org/2000/svg" viewBox="0 0 300 300" width="300" height="300">
  <defs>
    <linearGradient id="goldGrad" x1="0%" y1="0%" x2="0%" y2="100%">
      <stop offset="0%" style="stop-color:#E8C068"/>
      <stop offset="50%" style="stop-color:#D4A84B"/>
      <stop offset="100%" style="stop-color:#B8923D"/>
    </linearGradient>
    <linearGradient id="flameGrad" x1="0%" y1="100%" x2="0%" y2="0%">
      <stop offset="0%" style="stop-color:#C41E3A"/>
      <stop offset="100%" style="stop-color:#E44D26"/>
    </linearGradient>
  </defs>

  <!-- Napkin - cream colored -->
  <rect x="20" y="20" width="260" height="260" fill="#F6F0E6" rx="3"/>

  <!-- Subtle texture lines -->
  <g stroke="#E8E0D0" stroke-width="0.5" opacity="0.5">
    <line x1="20" y1="60" x2="280" y2="60"/>
    <line x1="20" y1="100" x2="280" y2="100"/>
    <line x1="20" y1="140" x2="280" y2="140"/>
    <line x1="20" y1="180" x2="280" y2="180"/>
    <line x1="20" y1="220" x2="280" y2="220"/>
  </g>

  <!-- Corner logo (embossed style) -->
  <g transform="translate(220, 230) scale(0.35)">
    <!-- Flame -->
    <path d="M0 -50 Q-4 -35 -12 -15 Q-16 0 -12 10 Q-6 18 0 20 Q6 18 12 10 Q16 0 12 -15 Q4 -35 0 -50 Z" fill="#D4A84B" opacity="0.6"/>
    <!-- Swirl -->
    <path d="M-28 18 Q-38 23 -34 32 Q-28 40 -12 42 Q0 44 12 42 Q28 40 34 32 Q38 23 28 18 Q15 12 0 10 Q-15 12 -28 18 Z M-22 22 Q-14 18 0 16 Q14 18 22 22 Q26 28 24 34 Q18 40 0 41 Q-18 40 -24 34 Q-26 28 -22 22 Z" fill="#D4A84B" opacity="0.5" fill-rule="evenodd"/>
    <path d="M-28 18 Q-40 14 -46 22 Q-50 32 -42 38 Q-36 42 -28 38 Q-34 32 -32 28 Q-30 22 -28 18 Z" fill="#D4A84B" opacity="0.5"/>
  </g>

  <!-- Small "BR" monogram in corner -->
  <text x="232" y="275" font-family="Georgia, serif" font-size="12" font-weight="bold" fill="#D4A84B" opacity="0.7">BR</text>
</svg>
